<?xml version="1.0" standalone="no"?>
<!DOCTYPE svg PUBLIC "-//W3C//DTD SVG 20010904//EN"
 "http://www.w3.org/TR/2001/REC-SVG-20010904/DTD/svg10.dtd">
<svg version="1.0" xmlns="http://www.w3.org/2000/svg"
 width="1920.000000pt" height="1080.000000pt" viewBox="0 0 1920.000000 1080.000000"
 preserveAspectRatio="xMidYMid meet">
<metadata>
Created by potrace 1.15, written by Peter Selinger 2001-2017
</metadata>
<g transform="translate(0.000000,1080.000000) scale(0.100000,-0.100000)"
fill="#000000" stroke="none">
<path d="M6845 9216 c-59 -27 -77 -46 -104 -106 -20 -45 -21 -59 -21 -1387 l0
-1343 -2699 0 -2699 0 -52 -27 c-31 -17 -65 -45 -84 -71 l-31 -44 -3 -2196
c-2 -1956 0 -2198 13 -2219 l15 -23 1399 0 1399 0 11 -30 c13 -38 19 -38 15 0
l-4 30 571 0 c504 0 570 -2 565 -15 -3 -8 -1 -15 4 -15 6 0 10 7 10 15 0 13
143 15 1225 15 l1225 0 0 70 0 70 -512 2 c-282 1 -1687 2 -3123 2 l-2610 1 4
720 3 720 750 3 750 2 16 40 c9 21 24 41 32 44 8 3 28 16 43 28 25 21 39 23
125 23 105 -1 137 -11 181 -59 14 -14 29 -26 35 -26 6 0 20 -11 30 -25 l19
-25 2129 0 2128 0 -3 672 c-2 370 -1 714 3 763 4 50 8 -630 8 -1510 2 -1739
-1 -1650 57 -1731 l28 -39 -29 30 c-26 27 -34 30 -69 23 -22 -4 -1616 -7
-3542 -7 -2323 -1 -3504 -4 -3508 -11 -4 -6 8 -10 29 -10 45 0 48 -20 4 -21
-18 0 -42 -4 -53 -8 -30 -12 72 -20 390 -31 154 -5 316 -12 360 -15 201 -14
1651 -25 3505 -27 1706 -1 2838 -9 2899 -19 8 -1 16 -11 19 -21 2 -10 13 -18
26 -18 11 0 72 -5 135 -11 88 -8 116 -8 121 2 6 9 158 12 669 10 414 -1 661 2
661 8 0 6 -10 17 -22 25 -22 16 -22 16 12 16 19 0 41 4 49 9 12 8 12 12 -3 26
-13 14 -20 15 -34 5 -9 -7 -4 -1 11 14 15 14 34 26 41 26 8 0 16 7 20 15 4 13
2 13 -14 5 -31 -17 -32 -12 -5 25 58 75 55 -9 57 1730 1 880 3 1579 5 1553 l4
-48 575 0 c497 0 574 2 574 15 0 8 -9 40 -21 72 -30 84 -79 124 -261 215 -100
50 -159 86 -167 100 -11 23 -11 23 -5 -2 22 -89 17 -116 -26 -157 -17 -15 -33
-28 -38 -29 -4 0 -31 -8 -61 -17 -62 -19 -148 -22 -219 -6 -70 15 -127 66
-147 131 -8 28 -12 54 -9 59 3 5 3 9 1 9 -11 0 -237 -110 -237 -115 0 -3 6
-18 14 -33 7 -15 16 -45 19 -67 5 -29 0 -21 -17 30 -29 85 -89 146 -160 164
-31 7 -261 12 -733 13 -378 1 -652 4 -608 5 l80 4 -3 319 -3 320 841 0 841 0
15 37 c17 40 42 64 95 93 29 15 53 18 130 16 102 -3 132 -13 184 -63 17 -16
36 -28 43 -25 7 2 12 -1 12 -7 0 -6 9 -20 20 -31 20 -20 33 -20 2400 -20
l2380 0 0 253 c0 283 6 311 71 358 l34 24 593 3 592 2 -2 1299 -3 1298 -30 48
c-22 36 -45 57 -84 77 l-53 28 -4582 0 -4581 0 -50 -24z m2887 -548 c47 -21
84 -48 123 -89 30 -31 55 -63 55 -69 0 -8 8 -10 23 -6 65 18 65 18 78 -5 11
-21 8 -26 -24 -54 -35 -31 -35 -31 -25 -80 13 -61 -1 -154 -35 -228 -34 -74
-112 -151 -194 -190 -62 -29 -77 -32 -163 -32 -86 0 -102 3 -160 31 -78 37
-128 78 -170 142 l-31 47 68 21 68 20 33 -37 c75 -87 208 -110 311 -54 84 46
131 122 131 213 0 44 -2 49 -22 48 -32 -1 -48 46 -24 73 17 19 16 21 -21 62
-51 57 -102 79 -183 79 -76 0 -130 -21 -179 -71 -63 -62 -88 -157 -68 -252 l8
-38 -73 3 -73 3 -9 54 c-18 108 26 239 110 325 123 124 289 156 446 84z m4193
-178 l0 -105 -240 0 -240 0 -3 94 c-1 52 0 101 2 108 5 11 52 13 243 11 l238
-3 0 -105z m-1225 -1505 l0 -65 -35 0 c-22 0 -41 7 -53 20 l-19 21 -6 -21 c-3
-13 -13 -20 -29 -20 -31 0 -48 18 -48 50 0 49 46 67 77 30 17 -19 17 -19 30 0
8 11 23 20 34 20 10 0 19 7 19 15 0 8 7 15 15 15 12 0 15 -14 15 -65z m-9786
-965 c58 -22 151 -98 175 -143 13 -25 15 -25 47 -12 31 13 35 12 49 -8 15 -21
14 -24 -17 -52 -33 -30 -33 -31 -24 -87 25 -158 -81 -328 -241 -388 -82 -31
-204 -25 -284 13 -54 26 -142 107 -167 153 -11 20 -7 22 53 39 l64 17 34 -36
c88 -93 230 -101 327 -18 48 40 67 75 79 139 11 55 6 73 -20 73 -10 0 -23 9
-29 21 -9 17 -8 25 6 40 17 19 17 22 2 47 -9 15 -40 42 -69 60 -45 27 -63 32
-116 32 -107 0 -183 -48 -223 -142 -22 -51 -24 -125 -6 -169 8 -19 -18 -29
-81 -29 -57 0 -67 19 -61 125 5 99 38 176 104 241 106 106 254 137 398 84z
m3921 -175 l0 -100 -214 -3 c-149 -2 -218 1 -227 9 -18 15 -20 169 -2 187 9 9
69 12 228 10 l215 -3 0 -100z m1791 -3378 c17 -9 42 -27 55 -41 13 -14 29 -26
35 -26 6 0 17 -7 24 -15 11 -13 56 -15 296 -15 l284 0 0 -222 0 -223 -402 2
c-358 2 -404 4 -415 19 -6 9 -16 13 -22 9 -7 -3 -8 0 -5 9 3 9 11 13 16 10 5
-4 9 4 7 17 -1 13 1 32 5 41 4 9 6 27 4 40 -3 20 -9 23 -53 26 -52 3 -105 -10
-105 -27 0 -16 33 -17 72 -2 31 11 40 12 53 1 9 -7 12 -16 8 -19 -13 -9 -43
-102 -37 -112 3 -5 -15 -9 -40 -9 -35 0 -44 3 -40 14 3 7 -3 30 -14 50 -17 31
-21 34 -32 21 -6 -8 -12 -30 -12 -50 0 -19 -5 -35 -11 -35 -7 -1 -140 -1 -297
-1 l-285 1 -3 220 -2 220 294 0 c271 0 294 1 301 18 3 9 6 18 5 20 -3 8 87 72
105 74 58 9 182 0 211 -15z"/>
<path d="M9940 8489 c-25 -10 -58 -18 -75 -19 -54 -1 -73 -10 -68 -31 3 -12
-1 -25 -11 -32 -22 -16 -11 -47 16 -47 11 0 28 -5 39 -10 16 -9 30 0 93 64 83
83 85 106 6 75z"/>
<path d="M3120 5845 c-19 -7 -56 -16 -82 -20 -42 -5 -48 -9 -48 -30 0 -13 -5
-25 -11 -27 -7 -2 -9 -13 -4 -27 4 -15 12 -20 22 -16 9 3 24 -2 34 -11 18 -16
20 -15 41 12 12 16 42 48 66 71 25 22 41 46 38 52 -9 14 -12 13 -56 -4z"/>
<path d="M15064 6469 c-42 -12 -92 -65 -104 -110 -7 -24 -9 -847 -8 -2355 l3
-2319 21 -35 c11 -19 35 -45 54 -57 38 -27 33 -30 -11 -7 -17 8 -44 16 -60 16
-39 1 -99 -32 -99 -54 0 -18 56 -48 91 -48 11 0 19 -6 19 -14 0 -7 9 -16 20
-19 53 -14 849 -12 1471 3 233 5 640 7 904 4 435 -6 1145 7 1307 23 51 5 56 7
48 23 -7 13 -6 20 2 22 6 2 9 11 6 20 -5 11 -17 15 -45 12 l-38 -2 35 18 c19
10 46 36 60 56 l25 38 2 2315 c1 1524 -2 2330 -9 2358 -12 48 -57 95 -107 112
-42 14 -3539 14 -3587 0z m882 -518 c28 -16 58 -41 68 -56 12 -18 23 -24 36
-20 24 8 35 -11 19 -32 -7 -8 -14 -41 -14 -72 -2 -155 -165 -257 -300 -190
-41 20 -95 73 -95 91 0 4 14 11 32 17 28 10 34 9 58 -14 72 -69 184 -44 219
48 15 39 14 67 -3 67 -22 0 -30 19 -15 36 17 20 -20 59 -69 71 -97 24 -180
-49 -170 -149 3 -31 1 -33 -34 -36 -33 -3 -37 -1 -43 27 -16 75 31 167 108
211 71 41 133 41 203 1z m2202 -88 l-3 -58 -105 -3 c-149 -4 -150 -4 -150 63
l0 55 130 0 131 0 -3 -57z m-472 -528 c8 -8 21 -12 29 -9 8 4 15 1 15 -6 0 -6
5 -8 13 -3 25 16 55 14 60 -4 3 -11 5 -8 6 10 1 32 21 37 21 5 0 -17 3 -19 12
-10 15 15 38 16 38 2 0 -5 -8 -10 -17 -10 -12 0 -14 -3 -6 -11 14 -14 33 -3
33 17 0 9 7 14 18 12 9 -2 22 3 29 12 11 13 12 13 13 -4 0 -20 0 -20 15 0 13
18 14 18 15 1 0 -10 5 -15 10 -12 6 3 10 1 10 -6 0 -8 4 -8 15 1 18 15 19 3 5
-34 -5 -14 -17 -26 -26 -26 -12 0 -14 3 -6 13 7 8 7 18 2 27 -8 13 -10 12 -10
-2 0 -10 -4 -18 -9 -18 -5 0 -12 8 -14 18 -4 14 -5 13 -6 -3 -1 -18 -8 -21
-50 -20 -27 0 -53 3 -57 7 -4 4 -13 3 -21 -3 -10 -9 -13 -8 -13 1 0 10 -3 10
-15 0 -18 -15 -36 -4 -28 17 4 11 3 14 -5 9 -7 -4 -12 -13 -12 -20 0 -19 -27
-40 -34 -27 -4 5 -2 12 3 16 6 3 7 13 4 22 -5 13 -8 12 -16 -8 l-10 -24 -7 25
c-8 24 -8 24 -9 3 -1 -22 -21 -34 -21 -12 0 5 -10 3 -22 -5 -32 -23 -38 -20
-38 19 0 27 4 35 18 35 10 0 23 -5 30 -12 9 -9 12 -7 12 10 0 26 6 27 26 7z
m-1606 -795 c20 -5 49 -23 65 -40 l29 -30 1108 0 1108 0 -2 -1232 -3 -1233
-168 1 c-134 0 -171 4 -178 15 -6 10 -9 10 -9 2 0 -7 -11 -13 -25 -13 -16 0
-25 6 -25 15 0 8 -4 15 -10 15 -5 0 -2 8 8 18 21 23 36 18 22 -8 -7 -13 -7
-21 0 -25 12 -8 24 20 17 39 -4 9 5 21 19 31 14 9 24 19 21 22 -7 6 -155 -72
-167 -89 -3 -3 -18 -10 -34 -14 l-28 -7 3 86 c3 73 2 84 -11 77 -8 -4 -103
-42 -211 -84 l-196 -76 -154 -1 c-102 0 -163 3 -181 11 -25 12 -27 16 -30 98
-2 47 -1 111 0 143 4 56 5 58 38 69 19 7 46 9 59 6 15 -4 27 -1 32 8 6 11 11
12 24 3 13 -10 17 -40 21 -155 3 -78 7 -145 10 -147 3 -3 19 -2 37 1 25 5 29
9 20 20 -6 8 -18 14 -26 14 -12 0 -13 10 -8 53 12 100 12 142 1 150 -8 5 -7
10 3 16 10 6 10 10 1 16 -14 9 15 31 50 38 24 4 24 4 -2 6 -48 2 -31 21 20 22
26 0 67 4 92 7 43 7 45 8 35 29 l-12 22 -36 -19 c-46 -25 -47 -25 -47 1 0 15
-4 19 -16 15 -9 -3 -27 -9 -40 -12 -22 -6 -24 -3 -24 29 0 19 5 37 11 39 9 3
9 10 -1 27 -9 18 -9 29 -1 49 8 17 9 28 1 36 -19 19 -10 26 30 26 38 0 54 -13
28 -23 -7 -3 -1 -6 15 -6 18 -1 27 4 27 14 0 13 13 15 78 13 66 -3 77 -5 76
-20 -1 -10 2 -18 7 -18 5 0 9 6 9 14 0 22 19 30 27 11 3 -10 0 -21 -8 -27 -11
-7 -8 -9 8 -5 16 4 24 -1 29 -15 5 -16 8 -18 15 -7 6 10 9 6 9 -14 0 -16 4
-26 10 -22 5 3 7 12 4 19 -8 20 60 43 72 25 3 -5 13 -5 22 0 9 5 26 12 37 16
20 6 20 7 -2 25 -21 17 -21 18 -4 23 14 3 21 -2 25 -16 8 -30 -4 -69 -19 -63
-9 3 -11 -2 -7 -16 3 -13 -1 -24 -12 -30 -9 -5 -16 -18 -16 -29 0 -12 4 -17
11 -13 7 4 9 0 6 -12 -16 -57 -17 -74 -5 -74 9 0 9 -3 0 -12 -7 -7 -12 -40
-12 -80 l0 -68 36 2 36 3 4 160 c2 88 6 171 10 185 11 38 17 138 10 166 -4 13
-11 24 -17 24 -6 0 -9 -7 -5 -15 3 -8 1 -15 -4 -15 -6 0 -10 7 -10 15 0 12
-61 14 -456 15 l-455 0 3 -37 c3 -35 6 -38 38 -43 26 -4 34 -9 32 -23 -2 -12
4 -17 19 -17 15 0 19 5 15 15 -4 10 1 15 14 15 21 0 27 -15 10 -25 -6 -4 -7
-12 -3 -18 4 -7 6 -79 3 -160 -3 -81 -3 -151 0 -155 3 -4 4 -73 2 -153 l-3
-146 -87 -6 c-48 -3 -90 -2 -94 1 -4 4 -8 46 -9 95 -2 48 -7 87 -12 87 -5 0
-6 -13 -2 -30 7 -31 -2 -39 -23 -18 -12 12 -17 108 -6 108 3 0 14 -4 24 -10
17 -9 18 -4 18 77 0 54 -3 81 -9 72 -6 -10 -9 -6 -10 16 l-1 30 -11 -34 c-8
-26 -20 -38 -49 -49 -21 -8 -38 -22 -38 -30 0 -12 4 -12 25 2 23 15 35 10 18
-8 -8 -7 -14 -33 -15 -56 0 -22 -53 -95 -67 -92 -7 1 -10 -2 -7 -7 3 -5 -32
-34 -79 -66 -82 -55 -108 -84 -64 -70 15 5 19 4 15 -4 -12 -19 -68 -12 -103
12 -40 27 -41 32 -5 51 15 8 25 16 22 16 -3 1 -25 2 -50 4 -25 1 -54 5 -65 9
-11 4 -3 -1 17 -11 21 -9 36 -21 35 -27 -7 -19 -25 -10 -76 38 -29 26 -57 47
-63 47 -9 0 -9 -3 -1 -11 8 -8 5 -24 -12 -58 -22 -41 -22 -47 -7 -52 14 -5 14
-7 -5 -17 -36 -20 -43 -14 -43 32 0 26 -6 48 -15 56 -8 7 -15 18 -14 24 0 7 2
6 6 -1 9 -24 18 -13 21 27 3 53 29 127 56 165 11 16 20 36 18 42 -2 7 2 13 8
13 5 0 10 -5 10 -11 0 -18 42 14 51 39 6 16 5 22 -6 22 -10 0 -15 10 -15 28 0
36 -16 52 -52 52 -30 0 -35 -9 -16 -28 10 -10 8 -14 -9 -18 -32 -9 -56 -49
-43 -73 14 -27 13 -31 -10 -31 -13 0 -20 7 -20 20 0 25 -20 27 -21 3 -8 -109
-7 -113 14 -102 11 7 15 14 10 18 -7 4 -7 15 -1 30 11 31 28 15 21 -20 -3 -15
-15 -31 -30 -38 -29 -13 -22 -31 13 -31 15 0 24 -6 24 -15 0 -9 -9 -15 -25
-15 -15 0 -25 -6 -25 -14 0 -8 -6 -16 -14 -19 -8 -3 -25 -27 -38 -54 -13 -26
-27 -55 -33 -65 -10 -19 -40 -24 -50 -9 -3 6 -13 10 -23 11 -9 0 -33 2 -52 3
-19 2 -45 4 -57 5 -17 2 -21 6 -16 20 4 11 -3 7 -20 -10 -14 -16 -35 -29 -47
-29 -11 -1 -25 -2 -32 -3 -11 -1 -37 80 -38 117 0 28 20 20 31 -13 6 -16 18
-30 27 -30 12 0 13 -3 4 -12 -22 -22 -13 -35 19 -30 28 4 30 7 27 41 -2 28 -8
36 -23 37 -11 1 -25 2 -31 3 -15 1 -16 71 -2 71 6 0 8 7 4 15 -3 9 0 15 9 15
16 0 18 12 8 49 l-6 23 -12 -23 c-11 -20 -13 -13 -19 62 -9 107 -15 139 -27
139 -13 0 -6 -232 8 -282 6 -21 7 -35 2 -32 -5 3 -9 12 -9 20 0 8 -4 13 -10 9
-5 -3 -7 -12 -4 -19 4 -9 -3 -13 -21 -13 -19 0 -27 6 -31 26 -9 43 -14 54 -20
48 -7 -6 19 -170 35 -224 6 -19 6 -33 1 -33 -10 0 -22 38 -44 145 -8 39 -18
78 -22 88 -9 24 14 67 32 60 8 -3 14 -11 14 -18 0 -7 6 -27 13 -44 12 -29 13
-25 14 56 1 57 -1 81 -7 68 -7 -17 -9 -17 -9 -2 -1 9 -6 17 -12 17 -6 0 -9 -7
-6 -15 4 -8 2 -17 -3 -20 -6 -4 -10 0 -10 8 0 8 -8 17 -19 20 -16 4 -19 -3
-25 -56 -3 -33 -6 -118 -6 -189 l0 -129 -117 3 -118 3 -2 35 c-1 19 1 574 4
1233 l6 1197 267 0 266 0 23 31 c34 46 87 58 161 39z m1143 -1897 c4 -2 7 -11
7 -19 0 -13 -3 -13 -28 0 -50 26 -94 0 -49 -28 13 -8 20 -8 26 3 5 8 16 11 25
8 13 -5 15 -20 12 -89 -2 -46 -7 -96 -11 -111 -7 -26 -11 -28 -39 -23 -40 8
-86 29 -86 38 0 5 -7 8 -16 8 -14 0 -15 8 -9 48 4 26 13 66 21 90 8 23 12 47
9 53 -4 5 -4 17 -1 25 5 13 17 15 69 9 34 -4 65 -9 70 -12z"/>
<path d="M15769 4081 c-53 -26 -104 -53 -114 -61 -14 -12 -55 -81 -55 -93 0
-5 773 3 778 8 2 2 -5 23 -16 48 -18 40 -28 48 -122 96 -89 46 -101 50 -95 31
17 -53 -69 -99 -160 -87 -58 8 -95 33 -102 69 -3 16 -8 30 -12 32 -3 2 -49
-17 -102 -43z"/>
<path d="M15581 2688 c1 -70 9 -118 19 -120 3 -1 16 5 30 12 l25 13 -30 13
-30 13 28 1 c16 0 37 -5 48 -10 22 -12 26 -35 4 -26 -16 6 -19 -2 -7 -21 6 -9
13 -7 25 8 12 13 27 19 45 17 22 -2 28 2 30 20 2 12 7 22 11 22 12 0 21 -83
11 -94 -5 -5 -3 -15 6 -23 20 -20 20 -231 0 -259 -13 -17 -12 -21 1 -36 15
-17 15 -18 -3 -18 -14 0 -16 -2 -5 -9 7 -5 22 -6 32 -4 16 5 17 8 7 21 -11 13
-10 14 9 8 15 -5 31 0 51 14 22 16 34 19 48 12 47 -24 88 -32 96 -19 6 9 13 6
26 -11 24 -30 32 -19 20 25 -5 20 -8 53 -6 74 4 45 -2 49 -75 49 -40 0 -48 -3
-39 -12 18 -18 15 -23 -13 -24 -25 -2 -37 25 -12 27 6 1 -13 6 -43 13 l-55 11
-7 110 c-4 63 -11 111 -17 113 -14 5 -14 32 -1 32 6 0 10 -5 10 -12 0 -8 3 -9
11 -1 12 12 1 113 -12 113 -5 0 -9 -16 -9 -36 0 -21 -4 -33 -10 -29 -5 3 -10
14 -10 24 0 10 -11 28 -24 40 l-24 23 -7 -21 c-9 -30 -27 -26 -19 4 5 21 3 25
-14 25 -11 0 -22 -5 -24 -11 -3 -9 -9 -9 -25 0 -12 6 -33 11 -47 11 -26 0 -26
-1 -25 -72z"/>
<path d="M16430 2719 c0 -22 -5 -49 -10 -60 -8 -15 -7 -19 4 -19 8 0 17 10 19
23 5 20 5 20 5 -3 -1 -60 0 -61 35 -55 17 3 40 8 50 11 22 7 34 -22 19 -46 -6
-10 -7 -21 -2 -26 5 -5 10 -20 13 -34 3 -16 5 -10 6 18 0 23 5 42 10 42 15 0
17 -48 5 -139 -11 -91 -9 -96 41 -83 27 8 30 13 28 43 -3 49 5 79 22 79 8 0
15 -4 15 -10 0 -5 9 -10 20 -10 12 0 20 -6 19 -12 -5 -39 2 -58 20 -58 11 0
22 4 25 8 3 5 7 65 10 133 3 68 5 130 5 137 1 7 5 11 9 8 6 -4 8 -94 1 -103
-1 -3 -2 -37 0 -55 1 -9 4 -9 12 -1 7 7 14 62 17 132 l5 121 -54 0 c-52 -1
-55 -3 -91 -48 -44 -55 -76 -93 -66 -77 4 6 2 17 -4 23 -9 9 -8 12 5 12 9 0
17 4 17 9 0 5 17 25 37 45 l37 36 -126 0 c-92 0 -128 -3 -131 -12 -4 -10 -6
-10 -6 0 -1 6 -5 12 -11 12 -5 0 -10 -18 -10 -41z"/>
<path d="M17860 2652 c0 -124 3 -129 93 -138 29 -3 58 -7 66 -10 8 -2 18 1 22
8 15 23 24 -4 21 -62 -2 -55 9 -83 26 -65 4 4 1 10 -5 12 -7 3 -13 9 -13 14 0
6 5 7 10 4 6 -3 10 -1 10 4 0 6 -5 11 -11 11 -6 0 -7 5 -2 13 4 6 9 41 10 77
2 36 5 70 8 77 2 7 -2 10 -11 6 -8 -3 -14 1 -14 11 0 10 6 14 18 10 14 -5 14
-3 -3 11 -11 9 -28 21 -39 27 -17 9 -18 7 -14 -26 3 -31 1 -36 -17 -36 -28 0
-47 14 -41 31 20 63 18 66 -38 98 -29 17 -59 31 -65 31 -7 0 -11 -34 -11 -108z"/>
<path d="M16470 2419 c-12 -35 -17 -39 -37 -34 -23 5 -33 -10 -11 -17 7 -3 9
-12 5 -22 -7 -18 -17 -18 -62 -1 -11 5 -2 -9 22 -31 38 -36 63 -87 50 -100 -3
-3 -16 0 -29 7 -12 6 -20 8 -15 4 4 -5 -3 -20 -15 -33 -13 -14 -18 -22 -11
-19 16 10 44 -3 36 -16 -4 -6 -1 -7 7 -2 10 6 9 11 -6 22 -15 11 -16 15 -5 22
22 14 51 1 48 -23 -1 -12 3 -20 10 -19 6 2 21 -9 31 -22 11 -14 23 -25 26 -25
3 0 30 16 61 35 61 39 89 74 79 99 -4 10 0 18 10 22 9 3 16 13 16 20 0 11 -4
12 -19 4 -11 -5 -45 -10 -75 -10 -53 0 -56 1 -56 25 0 16 -6 25 -15 25 -8 0
-15 5 -15 10 0 6 -10 10 -22 10 -21 1 -22 2 -5 14 9 7 17 24 17 36 0 13 7 31
15 40 13 14 12 16 -4 17 -13 1 -22 -10 -31 -38z"/>
<path d="M17950 2221 l-105 -37 -4 -79 -3 -79 24 16 c12 8 46 27 73 43 28 16
58 35 68 43 14 13 21 13 42 2 17 -9 22 -17 16 -29 -5 -9 -6 -22 -3 -30 2 -7
-1 -17 -8 -21 -21 -13 -2 -28 31 -27 22 1 37 10 47 27 16 25 16 25 -4 8 -29
-25 -44 -22 -44 9 0 14 3 24 6 20 8 -8 44 25 44 40 0 10 -6 9 -25 -3 l-25 -16
0 76 c0 55 -4 76 -12 75 -7 0 -60 -18 -118 -38z"/>
<path d="M9730 5565 c-7 -9 -6 -16 5 -25 8 -7 15 -9 15 -5 0 4 7 2 15 -5 12
-10 15 -10 15 3 0 20 56 30 83 15 19 -11 20 -13 4 -16 -9 -2 -15 -7 -12 -12 3
-4 -2 -26 -10 -49 -7 -22 -16 -58 -17 -78 -2 -21 -7 -43 -11 -49 -8 -14 39
-84 57 -84 9 0 12 9 8 25 -2 14 0 25 7 25 19 0 0 29 -22 33 l-22 4 22 2 c12 0
27 10 33 22 12 21 5 37 -30 68 -13 12 -13 13 2 8 14 -5 17 1 16 32 0 21 3 52
6 69 l7 30 -80 0 c-52 0 -84 -5 -91 -13z"/>
<path d="M9690 5475 c-9 -16 -11 -46 -8 -89 5 -58 3 -66 -13 -71 -11 -4 -19
-10 -19 -15 0 -17 39 -97 73 -151 32 -50 40 -57 77 -62 24 -3 53 -16 67 -29
25 -22 25 -22 14 -1 -6 12 -11 31 -11 43 0 19 4 21 30 15 20 -4 30 -3 30 5 0
7 -6 10 -12 8 -21 -8 -93 36 -92 55 1 9 -2 17 -7 17 -5 0 -6 7 -3 15 4 9 0 15
-10 15 -9 0 -16 7 -16 15 0 8 -4 15 -8 15 -18 0 -34 57 -33 117 0 42 -4 67
-14 77 -8 8 -15 19 -15 25 0 21 -18 19 -30 -4z"/>
<path d="M9430 3760 l0 -200 2755 0 2755 0 0 200 0 200 -2755 0 -2755 0 0
-200z"/>
<path d="M2817 3149 c-3 -12 -1 -32 4 -46 5 -14 11 -43 13 -66 2 -27 10 -45
22 -52 11 -5 20 -10 20 -10 1 0 5 -19 9 -42 5 -35 4 -43 -9 -43 -8 0 -17 -4
-20 -9 -9 -13 21 -77 65 -142 31 -46 44 -58 71 -61 18 -3 42 -9 52 -13 17 -7
18 -5 14 19 -5 26 -4 28 25 23 27 -4 28 -3 12 10 -11 7 -26 13 -35 13 -19 0
-56 37 -47 46 3 4 1 12 -6 19 -54 57 -68 93 -60 153 4 30 0 50 -17 81 -21 36
-25 39 -36 23 -7 -9 -14 -26 -14 -37 0 -14 -3 -16 -8 -7 -5 7 -7 36 -5 65 2
28 1 62 -2 75 -7 28 -41 29 -48 1z"/>
<path d="M3295 2800 c20 -70 18 -96 -14 -133 -44 -50 -130 -72 -247 -64 -73 5
-93 11 -127 34 -41 28 -76 89 -77 131 0 12 -3 22 -7 22 -21 0 -373 -181 -392
-201 -23 -25 -63 -97 -75 -136 l-7 -23 686 0 687 0 -7 33 c-12 54 -41 112 -71
141 -16 15 -95 60 -176 101 -81 42 -154 85 -164 98 l-16 22 7 -25z"/>
<path d="M10530 2655 l0 -25 943 3 942 2 3 23 3 22 -945 0 -946 0 0 -25z"/>
<path d="M12894 1633 c-15 -11 -267 -13 -1415 -13 -991 0 -1405 3 -1422 11
-19 9 -32 7 -65 -10 l-42 -21 18 -30 c21 -33 77 -74 113 -82 87 -20 243 -48
294 -53 33 -4 76 -15 96 -25 43 -22 140 -24 959 -25 831 0 1017 4 1054 25 17
10 60 21 96 25 130 13 341 60 377 83 11 7 63 78 63 86 0 6 -63 29 -72 27 -5 0
-8 3 -8 7 0 13 -25 10 -46 -5z"/>
</g>
</svg>
